<svg width="900" height="900" viewBox="0 0 900 900" fill="none" xmlns="http://www.w3.org/2000/svg" role="img" aria-labelledby="title desc">
  <title id="title">MY FIRST BABY</title>
  <desc id="desc">Logo lineal de una madre abrazando a su bebe</desc>
  <rect width="900" height="900" fill="#000000"/>
  <g stroke="#b8a096" stroke-width="8" stroke-linecap="round" stroke-linejoin="round">
    <path d="M306 600C236 482 273 349 374 259C395 157 506 103 613 151C676 180 720 244 718 322"/>
    <path d="M376 259C392 318 463 329 562 315C636 305 694 268 720 205"/>
    <path d="M337 524C367 445 421 409 500 398C586 386 665 360 713 287"/>
    <path d="M503 398C515 460 542 505 581 535"/>
    <path d="M582 535C555 562 519 561 493 540"/>
    <path d="M489 542C506 582 534 613 571 636"/>
    <path d="M602 432C625 436 644 445 658 458"/>
    <path d="M601 478C610 495 626 503 642 497"/>
    <path d="M709 354C672 380 654 414 660 456C680 462 704 473 724 492C785 551 776 646 714 722C651 799 566 792 486 726"/>
    <path d="M689 492C650 482 612 498 589 531C557 579 574 637 628 654C681 670 731 632 727 576"/>
    <path d="M626 570C605 588 591 612 586 638"/>
    <path d="M659 547C646 544 634 548 624 558"/>
    <path d="M681 529C690 510 704 498 722 494"/>
    <path d="M410 485C361 486 329 517 316 566C302 617 322 675 365 729C403 777 453 811 496 815C537 819 570 798 591 756"/>
    <path d="M421 557C442 596 468 624 501 642"/>
    <path d="M462 616C448 635 433 644 418 641"/>
    <path d="M391 624C406 621 418 626 427 638"/>
    <path d="M327 609C383 716 462 781 557 822"/>
  </g>
</svg>
